<svg width="180" height="30" viewBox="0 0 180 30" fill="none" xmlns="http://www.w3.org/2000/svg">
<rect width="180" height="30" rx="10" fill="white"/>
<path d="M49.7758 20.072C49.1518 20.072 48.5518 19.972 47.9758 19.772C47.4078 19.572 46.9678 19.308 46.6558 18.98L47.0038 18.296C47.3078 18.6 47.7118 18.848 48.2158 19.04C48.7198 19.224 49.2398 19.316 49.7758 19.316C50.5278 19.316 51.0918 19.18 51.4678 18.908C51.8438 18.628 52.0318 18.268 52.0318 17.828C52.0318 17.492 51.9278 17.224 51.7198 17.024C51.5198 16.824 51.2718 16.672 50.9758 16.568C50.6798 16.456 50.2678 16.336 49.7398 16.208C49.1078 16.048 48.6038 15.896 48.2278 15.752C47.8518 15.6 47.5278 15.372 47.2558 15.068C46.9918 14.764 46.8598 14.352 46.8598 13.832C46.8598 13.408 46.9718 13.024 47.1958 12.68C47.4198 12.328 47.7638 12.048 48.2278 11.84C48.6918 11.632 49.2678 11.528 49.9558 11.528C50.4358 11.528 50.9038 11.596 51.3598 11.732C51.8238 11.86 52.2238 12.04 52.5598 12.272L52.2598 12.98C51.9078 12.748 51.5318 12.576 51.1318 12.464C50.7318 12.344 50.3398 12.284 49.9558 12.284C49.2198 12.284 48.6638 12.428 48.2878 12.716C47.9198 12.996 47.7358 13.36 47.7358 13.808C47.7358 14.144 47.8358 14.416 48.0358 14.624C48.2438 14.824 48.4998 14.98 48.8038 15.092C49.1158 15.196 49.5318 15.312 50.0518 15.44C50.6678 15.592 51.1638 15.744 51.5398 15.896C51.9238 16.04 52.2478 16.264 52.5118 16.568C52.7758 16.864 52.9078 17.268 52.9078 17.78C52.9078 18.204 52.7918 18.592 52.5598 18.944C52.3358 19.288 51.9878 19.564 51.5158 19.772C51.0438 19.972 50.4638 20.072 49.7758 20.072ZM54.6626 13.688H55.5146V20H54.6626V13.688ZM55.0946 12.308C54.9186 12.308 54.7706 12.248 54.6506 12.128C54.5306 12.008 54.4706 11.864 54.4706 11.696C54.4706 11.536 54.5306 11.396 54.6506 11.276C54.7706 11.156 54.9186 11.096 55.0946 11.096C55.2706 11.096 55.4186 11.156 55.5386 11.276C55.6586 11.388 55.7186 11.524 55.7186 11.684C55.7186 11.86 55.6586 12.008 55.5386 12.128C55.4186 12.248 55.2706 12.308 55.0946 12.308ZM63.7293 13.688V19.232C63.7293 20.304 63.4653 21.096 62.9373 21.608C62.4173 22.128 61.6293 22.388 60.5733 22.388C59.9893 22.388 59.4333 22.3 58.9053 22.124C58.3853 21.956 57.9613 21.72 57.6333 21.416L58.0653 20.768C58.3693 21.04 58.7373 21.252 59.1693 21.404C59.6093 21.556 60.0693 21.632 60.5493 21.632C61.3493 21.632 61.9373 21.444 62.3133 21.068C62.6893 20.7 62.8773 20.124 62.8773 19.34V18.536C62.6133 18.936 62.2653 19.24 61.8333 19.448C61.4093 19.656 60.9373 19.76 60.4173 19.76C59.8253 19.76 59.2853 19.632 58.7973 19.376C58.3173 19.112 57.9373 18.748 57.6573 18.284C57.3853 17.812 57.2493 17.28 57.2493 16.688C57.2493 16.096 57.3853 15.568 57.6573 15.104C57.9373 14.64 58.3173 14.28 58.7973 14.024C59.2773 13.768 59.8173 13.64 60.4173 13.64C60.9533 13.64 61.4373 13.748 61.8693 13.964C62.3013 14.18 62.6493 14.492 62.9133 14.9V13.688H63.7293ZM60.5013 19.004C60.9573 19.004 61.3693 18.908 61.7373 18.716C62.1053 18.516 62.3893 18.24 62.5893 17.888C62.7973 17.536 62.9013 17.136 62.9013 16.688C62.9013 16.24 62.7973 15.844 62.5893 15.5C62.3893 15.148 62.1053 14.876 61.7373 14.684C61.3773 14.484 60.9653 14.384 60.5013 14.384C60.0453 14.384 59.6333 14.48 59.2653 14.672C58.9053 14.864 58.6213 15.136 58.4133 15.488C58.2133 15.84 58.1133 16.24 58.1133 16.688C58.1133 17.136 58.2133 17.536 58.4133 17.888C58.6213 18.24 58.9053 18.516 59.2653 18.716C59.6333 18.908 60.0453 19.004 60.5013 19.004ZM69.3278 13.64C70.1198 13.64 70.7478 13.872 71.2118 14.336C71.6838 14.792 71.9198 15.46 71.9198 16.34V20H71.0678V16.424C71.0678 15.768 70.9038 15.268 70.5758 14.924C70.2478 14.58 69.7798 14.408 69.1718 14.408C68.4918 14.408 67.9518 14.612 67.5518 15.02C67.1598 15.42 66.9638 15.976 66.9638 16.688V20H66.1118V13.688H66.9278V14.852C67.1598 14.468 67.4798 14.172 67.8878 13.964C68.3038 13.748 68.7838 13.64 69.3278 13.64ZM77.3735 13.688H78.2255V20H77.3735V13.688ZM77.8055 12.308C77.6295 12.308 77.4815 12.248 77.3615 12.128C77.2415 12.008 77.1815 11.864 77.1815 11.696C77.1815 11.536 77.2415 11.396 77.3615 11.276C77.4815 11.156 77.6295 11.096 77.8055 11.096C77.9815 11.096 78.1295 11.156 78.2495 11.276C78.3695 11.388 78.4295 11.524 78.4295 11.684C78.4295 11.86 78.3695 12.008 78.2495 12.128C78.1295 12.248 77.9815 12.308 77.8055 12.308ZM83.8122 13.64C84.6042 13.64 85.2322 13.872 85.6962 14.336C86.1682 14.792 86.4042 15.46 86.4042 16.34V20H85.5522V16.424C85.5522 15.768 85.3882 15.268 85.0602 14.924C84.7322 14.58 84.2642 14.408 83.6562 14.408C82.9762 14.408 82.4362 14.612 82.0362 15.02C81.6442 15.42 81.4482 15.976 81.4482 16.688V20H80.5962V13.688H81.4122V14.852C81.6442 14.468 81.9642 14.172 82.3722 13.964C82.7882 13.748 83.2682 13.64 83.8122 13.64ZM101.122 13.688L98.7339 20H97.9299L95.9379 14.828L93.9459 20H93.1419L90.7659 13.688H91.5819L93.5619 19.052L95.5899 13.688H96.3219L98.3379 19.052L100.342 13.688H101.122ZM102.405 13.688H103.257V20H102.405V13.688ZM102.837 12.308C102.661 12.308 102.513 12.248 102.393 12.128C102.273 12.008 102.213 11.864 102.213 11.696C102.213 11.536 102.273 11.396 102.393 11.276C102.513 11.156 102.661 11.096 102.837 11.096C103.013 11.096 103.161 11.156 103.281 11.276C103.401 11.388 103.461 11.524 103.461 11.684C103.461 11.86 103.401 12.008 103.281 12.128C103.161 12.248 103.013 12.308 102.837 12.308ZM108.951 19.616C108.791 19.76 108.591 19.872 108.351 19.952C108.119 20.024 107.875 20.06 107.619 20.06C107.027 20.06 106.571 19.9 106.251 19.58C105.931 19.26 105.771 18.808 105.771 18.224V14.408H104.643V13.688H105.771V12.308H106.623V13.688H108.543V14.408H106.623V18.176C106.623 18.552 106.715 18.84 106.899 19.04C107.091 19.232 107.363 19.328 107.715 19.328C107.891 19.328 108.059 19.3 108.219 19.244C108.387 19.188 108.531 19.108 108.651 19.004L108.951 19.616ZM113.718 13.64C114.51 13.64 115.138 13.872 115.602 14.336C116.074 14.792 116.31 15.46 116.31 16.34V20H115.458V16.424C115.458 15.768 115.294 15.268 114.966 14.924C114.638 14.58 114.17 14.408 113.562 14.408C112.882 14.408 112.342 14.612 111.942 15.02C111.55 15.42 111.354 15.976 111.354 16.688V20H110.502V11.096H111.354V14.792C111.586 14.424 111.906 14.14 112.314 13.94C112.722 13.74 113.19 13.64 113.718 13.64ZM127.212 17.756H122.532L121.524 20H120.6L124.44 11.6H125.316L129.156 20H128.22L127.212 17.756ZM126.888 17.036L124.872 12.524L122.856 17.036H126.888ZM133.618 13.64C134.21 13.64 134.746 13.776 135.226 14.048C135.706 14.312 136.082 14.688 136.354 15.176C136.626 15.664 136.762 16.22 136.762 16.844C136.762 17.476 136.626 18.036 136.354 18.524C136.082 19.012 135.706 19.392 135.226 19.664C134.754 19.928 134.218 20.06 133.618 20.06C133.106 20.06 132.642 19.956 132.226 19.748C131.818 19.532 131.482 19.22 131.218 18.812V22.328H130.366V13.688H131.182V14.936C131.438 14.52 131.774 14.2 132.19 13.976C132.614 13.752 133.09 13.64 133.618 13.64ZM133.558 19.304C133.998 19.304 134.398 19.204 134.758 19.004C135.118 18.796 135.398 18.504 135.598 18.128C135.806 17.752 135.91 17.324 135.91 16.844C135.91 16.364 135.806 15.94 135.598 15.572C135.398 15.196 135.118 14.904 134.758 14.696C134.398 14.488 133.998 14.384 133.558 14.384C133.11 14.384 132.706 14.488 132.346 14.696C131.994 14.904 131.714 15.196 131.506 15.572C131.306 15.94 131.206 16.364 131.206 16.844C131.206 17.324 131.306 17.752 131.506 18.128C131.714 18.504 131.994 18.796 132.346 19.004C132.706 19.204 133.11 19.304 133.558 19.304ZM141.751 13.64C142.343 13.64 142.879 13.776 143.359 14.048C143.839 14.312 144.215 14.688 144.487 15.176C144.759 15.664 144.895 16.22 144.895 16.844C144.895 17.476 144.759 18.036 144.487 18.524C144.215 19.012 143.839 19.392 143.359 19.664C142.887 19.928 142.351 20.06 141.751 20.06C141.239 20.06 140.775 19.956 140.359 19.748C139.951 19.532 139.615 19.22 139.351 18.812V22.328H138.499V13.688H139.315V14.936C139.571 14.52 139.907 14.2 140.323 13.976C140.747 13.752 141.223 13.64 141.751 13.64ZM141.691 19.304C142.131 19.304 142.531 19.204 142.891 19.004C143.251 18.796 143.531 18.504 143.731 18.128C143.939 17.752 144.043 17.324 144.043 16.844C144.043 16.364 143.939 15.94 143.731 15.572C143.531 15.196 143.251 14.904 142.891 14.696C142.531 14.488 142.131 14.384 141.691 14.384C141.243 14.384 140.839 14.488 140.479 14.696C140.127 14.904 139.847 15.196 139.639 15.572C139.439 15.94 139.339 16.364 139.339 16.844C139.339 17.324 139.439 17.752 139.639 18.128C139.847 18.504 140.127 18.796 140.479 19.004C140.839 19.204 141.243 19.304 141.691 19.304ZM146.631 11.096H147.483V20H146.631V11.096ZM155.35 17.108H150.07C150.118 17.764 150.37 18.296 150.826 18.704C151.282 19.104 151.858 19.304 152.554 19.304C152.946 19.304 153.306 19.236 153.634 19.1C153.962 18.956 154.246 18.748 154.486 18.476L154.966 19.028C154.686 19.364 154.334 19.62 153.91 19.796C153.494 19.972 153.034 20.06 152.53 20.06C151.882 20.06 151.306 19.924 150.802 19.652C150.306 19.372 149.918 18.988 149.638 18.5C149.358 18.012 149.218 17.46 149.218 16.844C149.218 16.228 149.35 15.676 149.614 15.188C149.886 14.7 150.254 14.32 150.718 14.048C151.19 13.776 151.718 13.64 152.302 13.64C152.886 13.64 153.41 13.776 153.874 14.048C154.338 14.32 154.702 14.7 154.966 15.188C155.23 15.668 155.362 16.22 155.362 16.844L155.35 17.108ZM152.302 14.372C151.694 14.372 151.182 14.568 150.766 14.96C150.358 15.344 150.126 15.848 150.07 16.472H154.546C154.49 15.848 154.254 15.344 153.838 14.96C153.43 14.568 152.918 14.372 152.302 14.372Z" fill="#858585"/>
<g clip-path="url(#clip0_0_352)">
<path d="M30.3452 8.21952C31.272 7.00716 32.5605 7.00125 32.5605 7.00125C32.5605 7.00125 32.7522 8.14107 31.8314 9.23908C30.8483 10.4115 29.7308 10.2197 29.7308 10.2197C29.7308 10.2197 29.5209 9.29759 30.3452 8.21952ZM29.8487 11.0181C30.3255 11.0181 31.2104 10.3676 32.3623 10.3676C34.3451 10.3676 35.1251 11.7678 35.1251 11.7678C35.1251 11.7678 33.5995 12.5419 33.5995 14.4202C33.5995 16.539 35.5 17.2693 35.5 17.2693C35.5 17.2693 34.1715 20.9801 32.3771 20.9801C31.5529 20.9801 30.9122 20.4289 30.0438 20.4289C29.1588 20.4289 28.2806 21.0007 27.7087 21.0007C26.0701 21.0007 24 17.4806 24 14.651C24 11.867 25.7522 10.4066 27.3957 10.4066C28.4641 10.4066 29.2932 11.0181 29.8487 11.0181Z" fill="#999999"/>
</g>
<defs>
<clipPath id="clip0_0_352">
<rect width="11.5" height="14" fill="white" transform="translate(24 7)"/>
</clipPath>
</defs>
</svg>
