<svg width="180" height="30" viewBox="0 0 180 30" fill="none" xmlns="http://www.w3.org/2000/svg">
<rect width="180" height="30" rx="10" fill="white"/>
<path d="M46.932 20.072C46.308 20.072 45.708 19.972 45.132 19.772C44.564 19.572 44.124 19.308 43.812 18.98L44.16 18.296C44.464 18.6 44.868 18.848 45.372 19.04C45.876 19.224 46.396 19.316 46.932 19.316C47.684 19.316 48.248 19.18 48.624 18.908C49 18.628 49.188 18.268 49.188 17.828C49.188 17.492 49.084 17.224 48.876 17.024C48.676 16.824 48.428 16.672 48.132 16.568C47.836 16.456 47.424 16.336 46.896 16.208C46.264 16.048 45.76 15.896 45.384 15.752C45.008 15.6 44.684 15.372 44.412 15.068C44.148 14.764 44.016 14.352 44.016 13.832C44.016 13.408 44.128 13.024 44.352 12.68C44.576 12.328 44.92 12.048 45.384 11.84C45.848 11.632 46.424 11.528 47.112 11.528C47.592 11.528 48.06 11.596 48.516 11.732C48.98 11.86 49.38 12.04 49.716 12.272L49.416 12.98C49.064 12.748 48.688 12.576 48.288 12.464C47.888 12.344 47.496 12.284 47.112 12.284C46.376 12.284 45.82 12.428 45.444 12.716C45.076 12.996 44.892 13.36 44.892 13.808C44.892 14.144 44.992 14.416 45.192 14.624C45.4 14.824 45.656 14.98 45.96 15.092C46.272 15.196 46.688 15.312 47.208 15.44C47.824 15.592 48.32 15.744 48.696 15.896C49.08 16.04 49.404 16.264 49.668 16.568C49.932 16.864 50.064 17.268 50.064 17.78C50.064 18.204 49.948 18.592 49.716 18.944C49.492 19.288 49.144 19.564 48.672 19.772C48.2 19.972 47.62 20.072 46.932 20.072ZM51.8189 13.688H52.6709V20H51.8189V13.688ZM52.2509 12.308C52.0749 12.308 51.9269 12.248 51.8069 12.128C51.6869 12.008 51.6269 11.864 51.6269 11.696C51.6269 11.536 51.6869 11.396 51.8069 11.276C51.9269 11.156 52.0749 11.096 52.2509 11.096C52.4269 11.096 52.5749 11.156 52.6949 11.276C52.8149 11.388 52.8749 11.524 52.8749 11.684C52.8749 11.86 52.8149 12.008 52.6949 12.128C52.5749 12.248 52.4269 12.308 52.2509 12.308ZM60.8855 13.688V19.232C60.8855 20.304 60.6215 21.096 60.0935 21.608C59.5735 22.128 58.7855 22.388 57.7295 22.388C57.1455 22.388 56.5895 22.3 56.0615 22.124C55.5415 21.956 55.1175 21.72 54.7895 21.416L55.2215 20.768C55.5255 21.04 55.8935 21.252 56.3255 21.404C56.7655 21.556 57.2255 21.632 57.7055 21.632C58.5055 21.632 59.0935 21.444 59.4695 21.068C59.8455 20.7 60.0335 20.124 60.0335 19.34V18.536C59.7695 18.936 59.4215 19.24 58.9895 19.448C58.5655 19.656 58.0935 19.76 57.5735 19.76C56.9815 19.76 56.4415 19.632 55.9535 19.376C55.4735 19.112 55.0935 18.748 54.8135 18.284C54.5415 17.812 54.4055 17.28 54.4055 16.688C54.4055 16.096 54.5415 15.568 54.8135 15.104C55.0935 14.64 55.4735 14.28 55.9535 14.024C56.4335 13.768 56.9735 13.64 57.5735 13.64C58.1095 13.64 58.5935 13.748 59.0255 13.964C59.4575 14.18 59.8055 14.492 60.0695 14.9V13.688H60.8855ZM57.6575 19.004C58.1135 19.004 58.5255 18.908 58.8935 18.716C59.2615 18.516 59.5455 18.24 59.7455 17.888C59.9535 17.536 60.0575 17.136 60.0575 16.688C60.0575 16.24 59.9535 15.844 59.7455 15.5C59.5455 15.148 59.2615 14.876 58.8935 14.684C58.5335 14.484 58.1215 14.384 57.6575 14.384C57.2015 14.384 56.7895 14.48 56.4215 14.672C56.0615 14.864 55.7775 15.136 55.5695 15.488C55.3695 15.84 55.2695 16.24 55.2695 16.688C55.2695 17.136 55.3695 17.536 55.5695 17.888C55.7775 18.24 56.0615 18.516 56.4215 18.716C56.7895 18.908 57.2015 19.004 57.6575 19.004ZM66.4841 13.64C67.2761 13.64 67.9041 13.872 68.3681 14.336C68.8401 14.792 69.0761 15.46 69.0761 16.34V20H68.2241V16.424C68.2241 15.768 68.0601 15.268 67.7321 14.924C67.4041 14.58 66.9361 14.408 66.3281 14.408C65.6481 14.408 65.1081 14.612 64.7081 15.02C64.3161 15.42 64.1201 15.976 64.1201 16.688V20H63.2681V13.688H64.0841V14.852C64.3161 14.468 64.6361 14.172 65.0441 13.964C65.4601 13.748 65.9401 13.64 66.4841 13.64ZM74.5298 13.688H75.3818V20H74.5298V13.688ZM74.9618 12.308C74.7858 12.308 74.6378 12.248 74.5178 12.128C74.3978 12.008 74.3378 11.864 74.3378 11.696C74.3378 11.536 74.3978 11.396 74.5178 11.276C74.6378 11.156 74.7858 11.096 74.9618 11.096C75.1378 11.096 75.2858 11.156 75.4058 11.276C75.5258 11.388 75.5858 11.524 75.5858 11.684C75.5858 11.86 75.5258 12.008 75.4058 12.128C75.2858 12.248 75.1378 12.308 74.9618 12.308ZM80.9685 13.64C81.7605 13.64 82.3885 13.872 82.8525 14.336C83.3245 14.792 83.5605 15.46 83.5605 16.34V20H82.7085V16.424C82.7085 15.768 82.5445 15.268 82.2165 14.924C81.8885 14.58 81.4205 14.408 80.8125 14.408C80.1325 14.408 79.5925 14.612 79.1925 15.02C78.8005 15.42 78.6045 15.976 78.6045 16.688V20H77.7525V13.688H78.5685V14.852C78.8005 14.468 79.1205 14.172 79.5285 13.964C79.9445 13.748 80.4245 13.64 80.9685 13.64ZM98.2782 13.688L95.8902 20H95.0862L93.0942 14.828L91.1022 20H90.2982L87.9222 13.688H88.7382L90.7182 19.052L92.7462 13.688H93.4782L95.4942 19.052L97.4982 13.688H98.2782ZM99.561 13.688H100.413V20H99.561V13.688ZM99.993 12.308C99.817 12.308 99.669 12.248 99.549 12.128C99.429 12.008 99.369 11.864 99.369 11.696C99.369 11.536 99.429 11.396 99.549 11.276C99.669 11.156 99.817 11.096 99.993 11.096C100.169 11.096 100.317 11.156 100.437 11.276C100.557 11.388 100.617 11.524 100.617 11.684C100.617 11.86 100.557 12.008 100.437 12.128C100.317 12.248 100.169 12.308 99.993 12.308ZM106.108 19.616C105.948 19.76 105.748 19.872 105.508 19.952C105.276 20.024 105.032 20.06 104.776 20.06C104.184 20.06 103.728 19.9 103.408 19.58C103.088 19.26 102.928 18.808 102.928 18.224V14.408H101.8V13.688H102.928V12.308H103.78V13.688H105.7V14.408H103.78V18.176C103.78 18.552 103.872 18.84 104.056 19.04C104.248 19.232 104.52 19.328 104.872 19.328C105.048 19.328 105.216 19.3 105.376 19.244C105.544 19.188 105.688 19.108 105.808 19.004L106.108 19.616ZM110.875 13.64C111.667 13.64 112.295 13.872 112.759 14.336C113.231 14.792 113.467 15.46 113.467 16.34V20H112.615V16.424C112.615 15.768 112.451 15.268 112.123 14.924C111.795 14.58 111.327 14.408 110.719 14.408C110.039 14.408 109.499 14.612 109.099 15.02C108.707 15.42 108.511 15.976 108.511 16.688V20H107.659V11.096H108.511V14.792C108.743 14.424 109.063 14.14 109.471 13.94C109.879 13.74 110.347 13.64 110.875 13.64ZM125.016 15.8H125.868V19.004C125.476 19.348 125.012 19.612 124.476 19.796C123.94 19.98 123.376 20.072 122.784 20.072C121.944 20.072 121.188 19.888 120.516 19.52C119.844 19.152 119.316 18.644 118.932 17.996C118.548 17.34 118.356 16.608 118.356 15.8C118.356 14.992 118.548 14.264 118.932 13.616C119.316 12.96 119.844 12.448 120.516 12.08C121.188 11.712 121.948 11.528 122.796 11.528C123.436 11.528 124.024 11.632 124.56 11.84C125.096 12.04 125.548 12.34 125.916 12.74L125.364 13.304C124.7 12.648 123.856 12.32 122.832 12.32C122.152 12.32 121.536 12.472 120.984 12.776C120.44 13.072 120.012 13.488 119.7 14.024C119.388 14.552 119.232 15.144 119.232 15.8C119.232 16.456 119.388 17.048 119.7 17.576C120.012 18.104 120.44 18.52 120.984 18.824C121.528 19.128 122.14 19.28 122.82 19.28C123.684 19.28 124.416 19.064 125.016 18.632V15.8ZM130.782 20.06C130.174 20.06 129.626 19.924 129.138 19.652C128.65 19.372 128.266 18.988 127.986 18.5C127.706 18.012 127.566 17.46 127.566 16.844C127.566 16.228 127.706 15.676 127.986 15.188C128.266 14.7 128.65 14.32 129.138 14.048C129.626 13.776 130.174 13.64 130.782 13.64C131.39 13.64 131.938 13.776 132.426 14.048C132.914 14.32 133.294 14.7 133.566 15.188C133.846 15.676 133.986 16.228 133.986 16.844C133.986 17.46 133.846 18.012 133.566 18.5C133.294 18.988 132.914 19.372 132.426 19.652C131.938 19.924 131.39 20.06 130.782 20.06ZM130.782 19.304C131.23 19.304 131.63 19.204 131.982 19.004C132.342 18.796 132.622 18.504 132.822 18.128C133.022 17.752 133.122 17.324 133.122 16.844C133.122 16.364 133.022 15.936 132.822 15.56C132.622 15.184 132.342 14.896 131.982 14.696C131.63 14.488 131.23 14.384 130.782 14.384C130.334 14.384 129.93 14.488 129.57 14.696C129.218 14.896 128.938 15.184 128.73 15.56C128.53 15.936 128.43 16.364 128.43 16.844C128.43 17.324 128.53 17.752 128.73 18.128C128.938 18.504 129.218 18.796 129.57 19.004C129.93 19.204 130.334 19.304 130.782 19.304ZM138.305 20.06C137.697 20.06 137.149 19.924 136.661 19.652C136.173 19.372 135.789 18.988 135.509 18.5C135.229 18.012 135.089 17.46 135.089 16.844C135.089 16.228 135.229 15.676 135.509 15.188C135.789 14.7 136.173 14.32 136.661 14.048C137.149 13.776 137.697 13.64 138.305 13.64C138.913 13.64 139.461 13.776 139.949 14.048C140.437 14.32 140.817 14.7 141.089 15.188C141.369 15.676 141.509 16.228 141.509 16.844C141.509 17.46 141.369 18.012 141.089 18.5C140.817 18.988 140.437 19.372 139.949 19.652C139.461 19.924 138.913 20.06 138.305 20.06ZM138.305 19.304C138.753 19.304 139.153 19.204 139.505 19.004C139.865 18.796 140.145 18.504 140.345 18.128C140.545 17.752 140.645 17.324 140.645 16.844C140.645 16.364 140.545 15.936 140.345 15.56C140.145 15.184 139.865 14.896 139.505 14.696C139.153 14.488 138.753 14.384 138.305 14.384C137.857 14.384 137.453 14.488 137.093 14.696C136.741 14.896 136.461 15.184 136.253 15.56C136.053 15.936 135.953 16.364 135.953 16.844C135.953 17.324 136.053 17.752 136.253 18.128C136.461 18.504 136.741 18.796 137.093 19.004C137.453 19.204 137.857 19.304 138.305 19.304ZM149.093 13.688V19.232C149.093 20.304 148.829 21.096 148.301 21.608C147.781 22.128 146.993 22.388 145.937 22.388C145.353 22.388 144.797 22.3 144.269 22.124C143.749 21.956 143.325 21.72 142.997 21.416L143.429 20.768C143.733 21.04 144.101 21.252 144.533 21.404C144.973 21.556 145.433 21.632 145.913 21.632C146.713 21.632 147.301 21.444 147.677 21.068C148.053 20.7 148.241 20.124 148.241 19.34V18.536C147.977 18.936 147.629 19.24 147.197 19.448C146.773 19.656 146.301 19.76 145.781 19.76C145.189 19.76 144.649 19.632 144.161 19.376C143.681 19.112 143.301 18.748 143.021 18.284C142.749 17.812 142.613 17.28 142.613 16.688C142.613 16.096 142.749 15.568 143.021 15.104C143.301 14.64 143.681 14.28 144.161 14.024C144.641 13.768 145.181 13.64 145.781 13.64C146.317 13.64 146.801 13.748 147.233 13.964C147.665 14.18 148.013 14.492 148.277 14.9V13.688H149.093ZM145.865 19.004C146.321 19.004 146.733 18.908 147.101 18.716C147.469 18.516 147.753 18.24 147.953 17.888C148.161 17.536 148.265 17.136 148.265 16.688C148.265 16.24 148.161 15.844 147.953 15.5C147.753 15.148 147.469 14.876 147.101 14.684C146.741 14.484 146.329 14.384 145.865 14.384C145.409 14.384 144.997 14.48 144.629 14.672C144.269 14.864 143.985 15.136 143.777 15.488C143.577 15.84 143.477 16.24 143.477 16.688C143.477 17.136 143.577 17.536 143.777 17.888C143.985 18.24 144.269 18.516 144.629 18.716C144.997 18.908 145.409 19.004 145.865 19.004ZM151.475 11.096H152.327V20H151.475V11.096ZM160.194 17.108H154.914C154.962 17.764 155.214 18.296 155.67 18.704C156.126 19.104 156.702 19.304 157.398 19.304C157.79 19.304 158.15 19.236 158.478 19.1C158.806 18.956 159.09 18.748 159.33 18.476L159.81 19.028C159.53 19.364 159.178 19.62 158.754 19.796C158.338 19.972 157.878 20.06 157.374 20.06C156.726 20.06 156.15 19.924 155.646 19.652C155.15 19.372 154.762 18.988 154.482 18.5C154.202 18.012 154.062 17.46 154.062 16.844C154.062 16.228 154.194 15.676 154.458 15.188C154.73 14.7 155.098 14.32 155.562 14.048C156.034 13.776 156.562 13.64 157.146 13.64C157.73 13.64 158.254 13.776 158.718 14.048C159.182 14.32 159.546 14.7 159.81 15.188C160.074 15.668 160.206 16.22 160.206 16.844L160.194 17.108ZM157.146 14.372C156.538 14.372 156.026 14.568 155.61 14.96C155.202 15.344 154.97 15.848 154.914 16.472H159.39C159.334 15.848 159.098 15.344 158.682 14.96C158.274 14.568 157.762 14.372 157.146 14.372Z" fill="#858585"/>
<g clip-path="url(#clip0_0_343)">
<path d="M32.9926 15.131C32.9926 14.5574 32.9449 14.1388 32.8419 13.7048H26.1394V16.2936H30.0736C29.9943 16.937 29.566 17.9058 28.6141 18.5569L28.6008 18.6436L30.72 20.2478L30.8668 20.2622C32.2152 19.0452 32.9926 17.2547 32.9926 15.131Z" fill="#4285F4"/>
<path d="M26.1395 21.9519C28.0669 21.9519 29.685 21.3318 30.8669 20.2622L28.6142 18.5569C28.0114 18.9677 27.2023 19.2545 26.1395 19.2545C24.2517 19.2545 22.6495 18.0376 22.0783 16.3557L21.9946 16.3626L19.791 18.0291L19.7622 18.1074C20.9361 20.3862 23.3474 21.9519 26.1395 21.9519Z" fill="#34A853"/>
<path d="M22.0782 16.3557C21.9275 15.9216 21.8402 15.4565 21.8402 14.976C21.8402 14.4954 21.9275 14.0303 22.0702 13.5963L22.0662 13.5038L19.8351 11.8106L19.7621 11.8445C19.2782 12.7902 19.0006 13.8521 19.0006 14.976C19.0006 16.0999 19.2782 17.1617 19.7621 18.1074L22.0782 16.3557Z" fill="#FBBC05"/>
<path d="M26.1395 10.6974C27.4799 10.6974 28.3842 11.2632 28.8998 11.736L30.9145 9.81375C29.6771 8.68985 28.0669 8 26.1395 8C23.3474 8 20.9361 9.5657 19.7622 11.8445L22.0704 13.5963C22.6495 11.9143 24.2517 10.6974 26.1395 10.6974Z" fill="#EB4335"/>
</g>
<defs>
<clipPath id="clip0_0_343">
<rect width="14" height="14" fill="white" transform="translate(19 8)"/>
</clipPath>
</defs>
</svg>
